<?xml version="1.0" standalone="no"?>
<!DOCTYPE svg PUBLIC "-//W3C//DTD SVG 20010904//EN"
 "http://www.w3.org/TR/2001/REC-SVG-20010904/DTD/svg10.dtd">
<svg version="1.0" xmlns="http://www.w3.org/2000/svg"
 viewBox="0 0 2600.000000 2604.000000"
 preserveAspectRatio="xMidYMid meet">
<metadata>
Created by potrace 1.13, written by Peter Selinger 2001-2015
</metadata>
<g transform="translate(0.000000,2604.000000) scale(0.100000,-0.100000)"
fill="#000000" stroke="none">
<path d="M9480 22833 c-14 -2 -115 -22 -225 -43 -215 -42 -383 -71 -535 -92
-136 -19 -715 -16 -992 5 -287 22 -334 13 -468 -90 -55 -42 -79 -53 -160 -73
-552 -134 -1206 -465 -1780 -899 -675 -510 -1364 -1282 -1819 -2039 -701
-1165 -939 -2726 -671 -4397 186 -1154 612 -2264 1146 -2982 282 -380 801
-875 1220 -1165 449 -310 797 -471 1579 -729 l420 -139 0 -49 c0 -127 90 -171
592 -286 536 -123 623 -149 1058 -315 327 -125 464 -174 568 -200 78 -19 97
-20 155 -11 37 6 99 27 138 47 l71 35 199 -40 c412 -83 765 -134 1199 -173
213 -19 777 -16 945 5 897 113 1750 474 2565 1086 505 379 996 873 1399 1411
770 1027 1254 2223 1405 3470 39 320 46 457 45 875 0 413 -8 583 -45 945 -138
1370 -576 2612 -1255 3560 -969 1354 -2363 2125 -4069 2249 -343 25 -433 23
-1415 -32 l-945 -54 -52 47 c-71 65 -168 91 -273 73z m2815 -432 c707 -83
1363 -322 1970 -719 1193 -779 2079 -2100 2474 -3687 143 -574 214 -1122 227
-1755 21 -993 -164 -1945 -563 -2888 -90 -212 -300 -630 -419 -832 -474 -808
-1085 -1506 -1774 -2024 -733 -552 -1511 -875 -2273 -947 -168 -15 -674 -7
-857 15 -1012 121 -1904 513 -2657 1169 -1002 871 -1670 2173 -1882 3667 -88
620 -100 1304 -35 1940 235 2304 1473 4438 3169 5465 583 354 1215 564 1845
614 176 15 578 5 775 -18z m-7677 -2095 c170 -85 388 -139 650 -158 253 -18
509 5 941 87 267 51 284 52 311 25 19 -19 22 -30 18 -80 -5 -71 -48 -148 -128
-230 -91 -93 -162 -102 -344 -40 -131 44 -252 72 -396 91 -183 25 -1017 10
-1192 -22 -126 -22 -162 -22 -185 0 -86 82 -7 275 142 342 60 28 106 24 183
-15z m-1251 -4120 c102 -52 334 -133 483 -170 145 -35 314 -61 579 -90 362
-39 389 -40 543 -17 193 29 225 21 265 -66 20 -43 26 -76 30 -156 4 -92 2
-106 -19 -147 -30 -57 -82 -94 -123 -85 -16 3 -70 30 -120 59 -303 180 -526
242 -1000 276 -184 13 -329 13 -560 -1 -172 -11 -193 -10 -222 5 -43 22 -61
59 -74 153 -13 93 -6 170 21 223 38 74 76 77 197 16z m1198 -4040 c50 -14 232
-74 405 -134 173 -60 351 -121 395 -135 206 -67 597 -166 893 -227 106 -22
206 -47 223 -55 101 -53 182 -210 133 -259 -38 -39 -122 -12 -500 159 -307
140 -428 190 -549 228 -202 63 -491 105 -785 113 -225 6 -258 14 -325 80 -49
47 -105 152 -105 196 0 64 65 74 215 34z"/>
<path d="M22495 11929 c-950 -450 -1730 -818 -1731 -816 -2 1 222 285 496 630
l500 628 -20 39 c-44 86 -137 155 -216 162 -31 3 -53 -23 -749 -897 l-716
-900 -1356 -643 c-745 -354 -1357 -642 -1358 -640 -1 2 -32 62 -68 133 -103
203 -210 315 -372 391 -119 55 -184 69 -335 68 -130 0 -139 -1 -235 -35 -116
-42 -1684 -785 -1765 -837 -72 -46 -168 -143 -219 -221 -122 -190 -154 -438
-83 -646 44 -128 354 -776 407 -850 53 -75 153 -168 229 -214 76 -45 203 -88
307 -101 93 -12 193 -4 298 26 76 22 1709 796 1791 849 210 136 340 379 340
635 0 125 -24 219 -95 375 -31 66 -52 121 -48 123 4 1 472 222 1038 491 567
269 1031 487 1033 486 5 -4 -2809 -3535 -2817 -3535 -4 0 -54 36 -111 81 -57
44 -129 94 -161 110 -295 148 -660 90 -886 -143 -76 -79 -1168 -1453 -1209
-1523 -20 -32 -50 -100 -67 -150 -31 -86 -32 -97 -31 -240 0 -141 2 -155 31
-237 67 -192 126 -257 506 -560 363 -290 351 -280 436 -323 207 -104 461 -102
676 5 147 72 165 92 669 725 824 1032 753 935 807 1095 30 88 33 105 33 225 1
150 -13 215 -74 340 -46 95 -112 180 -196 249 -33 28 -82 69 -108 91 l-48 40
1628 2044 1629 2045 2047 970 2048 971 0 47 c0 85 -53 190 -118 237 l-29 20
-1728 -820z"/>
</g>
</svg>
