<?xml version="1.0" standalone="no"?>
<!DOCTYPE svg PUBLIC "-//W3C//DTD SVG 20010904//EN"
 "http://www.w3.org/TR/2001/REC-SVG-20010904/DTD/svg10.dtd">
<svg version="1.0" xmlns="http://www.w3.org/2000/svg"
 viewBox="0 0 2600.000000 2600.000000"
 preserveAspectRatio="xMidYMid meet">
<metadata>
Created by potrace 1.15, written by Peter Selinger 2001-2017
</metadata>
<g transform="translate(0.000000,2600.000000) scale(0.100000,-0.100000)"
fill="#000000" stroke="none">
<path d="M11075 23399 c-151 -22 -285 -104 -519 -322 -156 -144 -224 -249
-291 -450 -36 -107 -50 -183 -60 -329 -7 -85 -8 -90 -55 -153 -63 -85 -74
-133 -67 -289 4 -94 12 -145 36 -228 48 -168 71 -212 155 -292 65 -63 75 -77
85 -124 15 -74 14 -123 -8 -253 -11 -63 -25 -161 -31 -219 -13 -127 -24 -171
-57 -232 -70 -129 -199 -180 -323 -127 l-48 21 -39 -26 c-52 -34 -160 -74
-263 -97 -102 -22 -393 -62 -615 -84 -408 -41 -524 -82 -676 -242 -242 -253
-518 -766 -902 -1673 -107 -252 -127 -313 -127 -379 1 -71 32 -126 130 -225
51 -52 97 -110 109 -136 26 -56 27 -162 5 -305 -11 -67 -19 -225 -24 -485 -5
-212 -13 -407 -19 -435 -15 -76 -13 -195 5 -247 21 -63 106 -142 277 -257 113
-76 167 -122 295 -250 242 -242 406 -366 632 -474 74 -36 153 -81 176 -101 80
-69 109 -197 84 -378 -13 -98 -23 -128 -43 -128 -7 0 -58 -23 -115 -50 -574
-276 -906 -819 -929 -1520 -5 -152 -3 -175 21 -293 65 -310 200 -645 373 -926
191 -310 471 -606 738 -782 64 -43 169 -102 195 -111 6 -2 22 -55 36 -118 14
-63 46 -185 71 -270 88 -303 111 -416 168 -835 66 -479 72 -504 174 -724 38
-80 75 -168 84 -196 83 -253 102 -673 58 -1265 -21 -299 -34 -509 -51 -877
-17 -362 11 -630 90 -874 17 -52 78 -191 135 -309 142 -294 159 -346 160 -485
0 -100 -2 -115 -26 -160 -15 -27 -55 -84 -89 -125 -69 -81 -90 -122 -90 -173
0 -55 45 -130 116 -192 112 -99 129 -171 74 -310 -16 -42 -30 -87 -30 -101 0
-35 24 -78 61 -107 l31 -24 -37 -48 c-84 -111 -119 -218 -113 -344 8 -148 62
-261 188 -394 116 -122 230 -192 385 -233 56 -15 103 -19 235 -18 182 1 264
17 438 84 147 56 193 119 193 260 0 91 -14 150 -79 345 l-47 140 0 145 c1 126
4 159 28 250 16 58 53 158 83 224 73 158 89 218 71 277 -8 24 -32 72 -55 107
-64 99 -66 148 -16 445 74 446 60 811 -62 1617 -55 360 -64 531 -40 756 9 83
20 217 26 298 7 108 18 177 41 262 l31 116 -9 182 c-10 227 -2 388 33 636 41
293 39 420 -14 725 -64 375 -65 459 -3 722 17 72 54 262 81 424 28 162 60 333
71 380 19 80 22 86 42 82 74 -18 127 -95 263 -383 128 -271 195 -436 239 -591
69 -239 76 -324 49 -589 -17 -164 -14 -268 11 -359 7 -29 50 -126 94 -215 84
-170 136 -307 176 -465 91 -362 96 -748 14 -1121 -19 -85 -20 -114 -14 -280 8
-212 -1 -270 -73 -462 -49 -130 -78 -245 -92 -363 -12 -102 -30 -612 -24 -665
25 -216 66 -348 196 -640 36 -80 70 -169 77 -198 16 -79 14 -197 -10 -387 -31
-253 -21 -399 46 -628 76 -264 214 -471 360 -543 82 -40 189 -45 286 -14 138
45 272 154 352 289 132 221 219 578 219 891 -1 189 -32 283 -152 449 -102 142
-111 218 -50 461 54 216 51 310 -17 575 -14 56 -28 142 -30 196 -9 156 24 238
201 506 83 125 132 217 240 444 230 487 243 526 261 821 12 200 16 223 45 305
18 48 47 131 66 183 20 55 34 114 34 141 0 101 -63 242 -136 303 -99 83 -113
181 -48 331 l39 90 0 165 c-1 152 -4 180 -38 343 -77 364 -125 698 -206 1427
-16 146 -48 382 -70 525 -22 143 -52 373 -66 510 -45 445 -109 834 -196 1213
-76 328 -213 821 -275 989 -51 137 -64 190 -64 253 0 98 42 130 173 130 171 0
355 45 537 129 160 75 209 89 352 102 195 16 274 47 400 151 83 69 141 152
210 298 108 226 117 244 174 340 81 136 130 236 163 337 16 48 44 124 64 168
39 91 58 168 50 205 -4 24 68 83 889 734 491 390 902 719 913 732 35 40 71 47
248 50 l168 3 30 44 c16 25 50 64 75 87 l46 42 34 -51 c25 -37 34 -61 34 -93
1 -68 60 -178 96 -178 7 0 37 20 68 46 64 52 70 77 29 116 -35 32 -93 68 -113
68 -8 1 -36 29 -61 62 l-47 61 27 22 c14 12 80 59 146 104 l119 81 35 -56 c25
-41 35 -70 36 -103 2 -53 45 -145 75 -161 25 -14 73 13 119 66 25 28 29 39 21
54 -16 30 -90 88 -120 95 -18 4 -44 27 -75 67 -45 58 -47 62 -29 75 30 22 313
183 321 183 20 0 67 -95 68 -139 3 -70 59 -171 95 -171 19 0 105 72 120 101
14 26 -45 90 -108 117 -32 14 -58 36 -84 70 l-37 50 22 15 c13 8 78 42 145 76
l122 61 -20 40 c-25 49 -46 137 -60 255 -19 162 -16 153 -59 160 -36 6 -41 11
-64 64 l-25 58 -228 90 -228 90 -37 -56 c-21 -31 -55 -73 -77 -94 l-39 -38
-32 42 c-23 32 -31 54 -31 84 0 57 -45 145 -73 145 -43 0 -137 -70 -137 -102
0 -39 132 -150 159 -134 4 3 22 -12 39 -33 l31 -38 -32 -31 c-47 -44 -259
-202 -272 -202 -22 0 -52 56 -58 107 -7 58 -40 131 -64 140 -18 7 -91 -29
-127 -62 -32 -29 -26 -53 28 -106 40 -41 99 -74 115 -65 8 5 56 -53 49 -59
-15 -13 -281 -185 -287 -185 -13 0 -29 42 -34 88 -7 62 -47 136 -75 140 -26 4
-117 -51 -133 -80 -8 -14 -5 -26 10 -51 34 -54 127 -117 151 -102 5 3 13 -3
19 -13 9 -16 -5 -27 -110 -91 -98 -60 -118 -76 -108 -87 37 -44 -23 -183 -125
-290 -29 -31 -509 -390 -1134 -848 -933 -685 -1090 -797 -1140 -811 -31 -9
-78 -29 -103 -43 -54 -30 -43 -35 -163 70 -125 108 -186 124 -251 67 -29 -26
-35 -38 -35 -72 0 -22 9 -59 20 -82 19 -40 126 -151 180 -188 l25 -17 -30 -25
c-17 -13 -36 -24 -44 -25 -8 0 -51 36 -96 80 -84 82 -147 120 -200 120 -36 0
-48 -7 -64 -38 -14 -27 -3 -72 35 -138 l24 -42 -25 -6 c-28 -7 -65 -59 -65
-92 0 -11 9 -48 21 -83 12 -34 20 -64 18 -65 -51 -46 -376 -273 -382 -267 -5
5 -11 61 -14 125 -6 112 -5 117 18 142 12 13 46 31 75 40 85 25 89 33 88 198
-1 114 -9 182 -38 351 -60 343 -66 423 -66 965 0 527 -8 642 -56 859 -30 135
-93 329 -135 418 -17 35 -55 90 -86 124 -127 136 -528 361 -956 534 -87 36
-189 83 -227 105 -49 29 -96 46 -160 60 -162 35 -182 66 -206 310 -14 151 -14
167 1 207 19 48 76 129 175 248 87 103 143 191 217 340 77 153 106 233 138
386 64 304 155 977 155 1147 0 249 -86 446 -280 642 -169 172 -345 252 -620
285 -74 9 -178 22 -230 30 -142 21 -189 23 -255 14z"/>
</g>
</svg>
