<?xml version="1.0" standalone="no"?>
<!DOCTYPE svg PUBLIC "-//W3C//DTD SVG 20010904//EN"
 "http://www.w3.org/TR/2001/REC-SVG-20010904/DTD/svg10.dtd">
<svg version="1.0" xmlns="http://www.w3.org/2000/svg"
 viewBox="0 0 2600.000000 2600.000000"
 preserveAspectRatio="xMidYMid meet">
<metadata>
Created by potrace 1.15, written by Peter Selinger 2001-2017
</metadata>
<g transform="translate(0.000000,2600.000000) scale(0.100000,-0.100000)"
fill="#000000" stroke="none">
<path d="M13735 23369 c-521 -26 -1055 -163 -1527 -393 -1047 -509 -1830
-1471 -2113 -2593 -208 -827 -149 -1673 170 -2458 203 -501 490 -932 879
-1321 490 -489 1065 -827 1726 -1014 398 -112 758 -157 1170 -147 244 6 325
14 557 52 1135 189 2157 891 2752 1890 300 505 470 1014 543 1630 20 169 17
655 -5 833 -95 772 -376 1443 -853 2042 -134 168 -440 475 -599 601 -612 485
-1266 761 -2035 858 -81 10 -452 32 -495 29 -11 0 -87 -4 -170 -9z"/>
<path d="M9599 16422 c-315 -307 -717 -742 -1028 -1112 -1299 -1545 -2217
-3223 -2706 -4945 -261 -918 -402 -1884 -407 -2785 -1 -231 5 -323 29 -417 l5
-23 -493 0 c-475 0 -496 -1 -539 -21 -60 -27 -107 -74 -136 -134 l-24 -50 0
-2676 c0 -2942 -5 -2717 60 -2799 18 -22 55 -51 88 -67 l57 -28 9470 0 9470 0
45 21 c67 31 106 68 137 132 l28 57 0 2680 0 2680 -21 45 c-25 53 -82 111
-133 137 -34 17 -95 18 -1113 21 l-1078 2 0 33 c0 17 7 131 15 251 77 1163 16
2352 -176 3410 -411 2271 -1467 4188 -3014 5471 -77 63 -142 114 -146 113 -4
-2 -42 -48 -85 -103 -727 -938 -1805 -1604 -2974 -1839 -346 -70 -584 -91
-1005 -91 -374 1 -496 10 -805 61 -667 110 -1287 348 -1867 715 -535 339
-1017 792 -1383 1299 -45 63 -86 119 -90 123 -4 5 -86 -68 -181 -161z m7206
-2503 c454 -464 825 -1007 1120 -1639 622 -1330 864 -2942 730 -4860 -8 -118
-18 -230 -21 -247 l-5 -33 -1024 0 -1025 0 0 3496 0 3496 38 -30 c20 -16 105
-99 187 -183z m-5825 -3349 l0 -3430 -1445 0 c-795 0 -1445 4 -1445 8 0 5 6
53 14 108 8 54 17 207 20 339 15 581 72 1043 197 1599 359 1593 1246 3225
2553 4694 55 61 102 112 103 112 2 0 3 -1543 3 -3430z m-5126 -4067 c98 -95
197 -171 295 -225 l31 -17 0 -911 0 -910 -87 0 c-100 0 -127 -11 -160 -59
l-23 -34 0 -1223 0 -1224 -540 0 -540 0 0 2355 0 2355 456 0 457 0 111 -107z
m2206 -978 l0 -1085 -87 0 c-71 0 -95 -4 -121 -20 -65 -40 -62 33 -62 -1305
l0 -1215 -400 0 -400 0 0 1216 c0 1115 -1 1219 -17 1251 -26 57 -64 73 -165
73 l-88 0 0 838 0 838 103 2 c345 6 707 168 934 417 l68 75 118 0 117 0 0
-1085z m1880 -1270 l0 -2355 -535 0 -535 0 0 1215 c0 1338 3 1265 -62 1305
-26 16 -50 20 -120 20 l-88 0 0 1085 0 1085 670 0 670 0 0 -2355z m1890 1270
l0 -1085 -91 0 c-102 0 -134 -12 -165 -64 -18 -30 -19 -76 -22 -1253 l-2
-1223 -535 0 -535 0 0 2355 0 2355 675 0 675 0 0 -1085z m1880 0 l0 -1085 -96
0 -96 0 -39 -39 -39 -39 0 -1231 0 -1231 -405 0 -405 0 0 1231 0 1231 -39 39
-39 39 -96 0 -96 0 0 1085 0 1085 675 0 675 0 0 -1085z m1880 0 l0 -1085 -87
0 c-100 0 -127 -11 -160 -59 l-23 -34 0 -1223 0 -1224 -400 0 -400 0 -2 1223
c-3 1177 -4 1223 -22 1253 -31 52 -63 64 -165 64 l-91 0 0 1085 0 1085 675 0
675 0 0 -1085z m1880 -1270 l0 -2355 -535 0 -535 0 0 1216 c0 1115 -1 1219
-17 1251 -26 57 -64 73 -165 73 l-88 0 0 1085 0 1085 670 0 670 0 0 -2355z
m1242 2328 c6 -16 29 -66 50 -112 101 -222 296 -437 516 -570 l72 -43 0 -709
0 -709 -85 0 c-96 0 -131 -13 -161 -57 -18 -27 -19 -69 -22 -1255 l-2 -1228
-535 0 -535 0 0 2355 0 2355 345 0 345 0 12 -27z m2528 -1058 l0 -1085 -95 0
c-91 0 -95 -1 -129 -31 -20 -17 -40 -47 -46 -67 -6 -24 -10 -454 -10 -1239 l0
-1203 -400 0 -400 0 0 1224 0 1223 -23 34 c-33 48 -60 59 -159 59 l-88 0 0
634 0 633 118 6 c259 13 494 89 697 227 219 149 397 368 490 603 15 37 31 67
36 67 5 0 9 -454 9 -1085z m1880 -1270 l0 -2355 -535 0 -535 0 0 1198 c0 695
-4 1214 -10 1237 -6 25 -22 52 -44 73 -35 31 -37 32 -131 32 l-95 0 0 1085 0
1085 675 0 675 0 0 -2355z"/>
</g>
</svg>
