<?xml version="1.0" standalone="no"?>
<!DOCTYPE svg PUBLIC "-//W3C//DTD SVG 20010904//EN"
 "http://www.w3.org/TR/2001/REC-SVG-20010904/DTD/svg10.dtd">
<svg version="1.0" xmlns="http://www.w3.org/2000/svg"
 width="1365.000000pt" height="768.000000pt" viewBox="0 0 1365.000000 768.000000"
 preserveAspectRatio="xMidYMid meet">

<g transform="translate(0.000000,768.000000) scale(0.100000,-0.100000)"
fill="#000000" stroke="none">
<path d="M6730 6919 c-84 -33 -156 -62 -159 -64 -2 -3 3 -110 12 -238 29 -389
24 -360 68 -427 l39 -61 -10 -422 c-31 -1311 -31 -1322 -45 -1337 -42 -48 -60
-105 -60 -190 0 -78 3 -90 34 -148 19 -35 47 -72 63 -83 15 -11 28 -19 29 -17
0 2 7 494 14 1093 13 1048 13 1100 -6 1355 -10 146 -19 289 -19 318 l0 52 39
0 c39 0 40 -1 45 -42 4 -24 22 -171 41 -328 l35 -285 -6 -1112 -7 -1113 43 0
43 0 -4 1148 -4 1147 33 260 c45 361 36 325 82 325 l40 0 0 -72 c-1 -40 -9
-185 -19 -323 -16 -225 -17 -320 -9 -940 5 -379 12 -870 16 -1089 l7 -399 30
26 c105 88 126 284 44 397 -28 39 -29 43 -29 162 0 68 -5 294 -10 503 -6 209
-15 544 -20 745 l-9 365 39 60 c43 66 38 39 65 358 16 178 22 303 16 309 -5 6
-54 26 -262 108 l-45 18 -154 -59z"/>
<path d="M6753 6198 c6 -76 -4 -1185 -18 -1966 l-6 -322 36 -17 c19 -9 37 -14
39 -12 3 3 6 516 7 1140 1 1209 -1 1259 -44 1259 -19 0 -20 -4 -14 -82z"/>
<path d="M6961 6223 c-8 -40 -11 -386 -11 -1205 l0 -1148 37 15 c20 9 39 18
41 20 2 2 -1 404 -7 892 -7 488 -13 1022 -13 1186 -2 270 -4 297 -19 297 -12
0 -19 -15 -28 -57z"/>
<path d="M6129 5364 c-255 -168 -470 -311 -477 -318 -9 -9 -12 -178 -10 -799
l3 -788 88 166 88 167 -1 572 c0 536 1 573 17 588 10 8 183 122 384 253 l366
239 7 109 c4 61 5 111 3 113 -2 2 -212 -134 -468 -302z"/>
<path d="M7170 5553 l0 -108 200 -130 c110 -71 283 -184 383 -250 l182 -120 5
-580 5 -580 85 -163 c46 -89 87 -162 90 -162 4 0 1 1584 -3 1585 -1 1 -69 45
-152 100 -417 275 -785 515 -790 515 -3 0 -5 -48 -5 -107z"/>
<path d="M6466 4887 l-118 -32 -65 -130 -65 -130 64 -164 65 -165 21 70 c12
38 37 96 57 129 28 45 35 66 29 85 -9 33 -10 91 -2 112 4 9 36 34 72 55 l66
37 0 83 c0 46 -1 83 -2 82 -2 0 -56 -15 -122 -32z"/>
<path d="M7170 4837 l0 -82 66 -38 c85 -50 93 -70 69 -168 -5 -20 2 -39 29
-82 20 -31 46 -88 59 -128 l24 -72 61 156 c34 85 62 161 61 169 0 7 -28 69
-62 137 l-62 125 -122 32 -123 32 0 -81z"/>
<path d="M5372 4037 c-2 -681 0 -813 12 -842 21 -50 97 -118 214 -191 57 -36
105 -64 107 -62 8 8 -96 303 -109 310 -48 27 -46 -4 -48 686 -3 634 -3 639 -8
227 -3 -231 -6 -394 -8 -362 -1 43 -6 57 -17 57 -8 0 -15 5 -15 11 0 5 5 7 10
4 9 -6 12 1 9 23 -1 4 -5 6 -10 5 -5 -2 -9 2 -9 7 0 6 5 10 10 10 6 0 10 7 10
15 0 8 -7 15 -15 15 -8 0 -24 9 -36 21 -17 17 -18 23 -7 37 9 11 10 14 1 8 -7
-4 -13 -3 -13 1 0 5 6 15 13 22 10 10 9 12 -2 9 -9 -2 -15 8 -17 30 -1 17 2
32 7 32 6 0 7 -4 4 -10 -3 -5 -2 -10 4 -10 5 0 9 8 8 19 -1 13 -7 17 -20 13
-16 -4 -18 -1 -13 16 4 11 3 23 -2 26 -5 3 -8 17 -7 31 2 14 -1 23 -5 20 -5
-3 -10 3 -12 12 -3 10 -9 -11 -14 -47 -7 -50 -10 18 -14 300 -4 269 -6 153 -8
-443z m15 36 c-3 -10 -5 -4 -5 12 0 17 2 24 5 18 2 -7 2 -21 0 -30z m113 -139
c0 -8 -19 -13 -24 -6 -3 5 1 9 9 9 8 0 15 -2 15 -3z"/>
<path d="M6344 4055 c-4 -11 -60 -117 -123 -235 -63 -118 -114 -223 -113 -233
0 -10 36 -122 78 -249 75 -220 80 -231 114 -253 19 -12 206 -120 415 -238 209
-119 452 -259 540 -310 l160 -95 65 36 c36 20 78 43 93 53 l28 16 -48 30 c-55
35 -749 453 -985 593 l-156 94 -37 125 c-21 69 -42 134 -46 143 -7 13 10 55
62 161 l72 144 -37 60 c-21 34 -46 87 -56 119 -15 48 -20 55 -26 39z"/>
<path d="M7392 4013 c-7 -27 -31 -77 -54 -113 l-40 -65 70 -141 71 -141 -44
-144 c-27 -87 -51 -149 -62 -157 -10 -7 -100 -61 -200 -120 -100 -58 -180
-110 -177 -114 7 -10 177 -111 189 -111 6 0 88 44 182 98 l173 99 79 245 80
246 -122 232 c-67 128 -124 233 -127 233 -3 0 -12 -21 -18 -47z"/>
<path d="M6020 4000 c-6 -11 -8 -20 -6 -20 3 0 10 9 16 20 6 11 8 20 6 20 -3
0 -10 -9 -16 -20z"/>
<path d="M5504 3990 c0 -13 4 -16 10 -10 7 7 7 13 0 20 -6 6 -10 3 -10 -10z"/>
<path d="M5476 3983 c-6 -14 -5 -15 5 -6 7 7 10 15 7 18 -3 3 -9 -2 -12 -12z"/>
<path d="M5996 3953 c-6 -14 -5 -15 5 -6 7 7 10 15 7 18 -3 3 -9 -2 -12 -12z"/>
<path d="M5976 3913 c-6 -14 -5 -15 5 -6 7 7 10 15 7 18 -3 3 -9 -2 -12 -12z"/>
<path d="M5900 3775 c-34 -63 -58 -120 -54 -126 4 -7 3 -9 -4 -5 -6 4 -43 -55
-94 -152 l-84 -158 98 -300 c72 -219 104 -304 121 -319 13 -11 131 -82 262
-157 132 -75 348 -197 480 -273 161 -91 247 -135 262 -132 12 2 119 59 238
127 l216 123 -91 54 -90 54 -133 -75 c-73 -42 -138 -76 -145 -76 -6 0 -121 62
-254 138 -134 76 -327 185 -430 242 l-187 105 -76 235 -77 234 52 101 c29 55
77 146 107 203 30 56 52 102 49 102 -3 0 -19 -27 -36 -60 -17 -34 -35 -58 -40
-55 -6 4 -8 9 -6 13 4 7 -13 26 -27 31 -5 1 -15 -6 -23 -16 -14 -17 -14 -16
-12 8 3 28 -16 59 -37 59 -7 0 9 40 37 95 27 52 47 95 44 95 -2 0 -32 -52 -66
-115z m72 -217 c-12 -18 -22 -28 -22 -22 0 6 3 14 7 18 11 11 14 48 3 41 -11
-7 -14 8 -3 19 4 3 13 0 21 -8 13 -13 12 -19 -6 -48z m1168 -1088 c0 -5 -2
-10 -4 -10 -3 0 -8 5 -11 10 -3 6 -1 10 4 10 6 0 11 -4 11 -10z m155 -55 c24
-20 14 -17 -47 15 -27 13 -48 28 -48 32 0 10 66 -23 95 -47z m-45 -50 c-7 -8
-18 -15 -24 -15 -6 0 -2 7 8 15 25 19 32 19 16 0z"/>
<path d="M6096 3783 c-15 -25 -24 -48 -22 -51 3 -2 16 19 30 47 33 64 27 67
-8 4z"/>
<path d="M8382 3585 c0 -16 2 -22 5 -12 2 9 2 23 0 30 -3 6 -5 -1 -5 -18z"/>
<path d="M8214 3435 c0 -88 2 -123 3 -77 2 46 2 118 0 160 -1 42 -3 5 -3 -83z"/>
<path d="M8384 3395 c0 -88 2 -123 3 -77 2 46 2 118 0 160 -1 42 -3 5 -3 -83z"/>
<path d="M5995 3397 l-48 -93 65 -199 66 -199 73 -42 c41 -23 222 -126 403
-228 l330 -185 35 22 c20 12 62 36 94 53 l58 31 -437 249 -437 249 -71 212
c-39 116 -74 214 -77 217 -3 4 -28 -36 -54 -87z m900 -751 c94 -51 136 -79
133 -88 -2 -5 -21 -19 -43 -31 -22 -12 -43 -26 -47 -32 -4 -5 -10 -6 -15 -1
-7 6 20 29 37 31 3 0 15 7 27 15 25 16 14 40 -19 40 -10 0 -17 4 -14 9 3 5 -1
12 -10 15 -12 4 -15 2 -10 -9 3 -8 1 -15 -4 -15 -9 0 -14 14 -12 32 1 3 -6 9
-14 12 -12 4 -15 2 -10 -9 3 -8 0 -15 -5 -15 -7 0 -9 9 -6 21 5 18 2 20 -19
16 -18 -3 -24 0 -24 13 0 10 -16 24 -40 35 -22 10 -40 22 -40 27 0 6 21 -2 48
-17 26 -15 65 -37 87 -49z m95 -80 c0 -11 -19 -15 -25 -6 -3 5 1 10 9 10 9 0
16 -2 16 -4z"/>
<path d="M6472 3403 l3 -76 140 -44 c77 -24 170 -52 206 -62 l66 -19 203 64
c111 35 204 65 207 67 2 2 0 36 -3 76 l-7 71 -113 0 -114 0 0 -34 c0 -28 4
-35 23 -38 17 -2 22 -10 22 -33 l0 -30 -222 -3 -223 -2 0 35 c0 29 4 35 18 33
13 -2 18 5 20 35 l3 37 -116 0 -116 0 3 -77z"/>
<path d="M6730 3440 l0 -40 40 0 40 0 0 40 0 40 -40 0 -40 0 0 -40z"/>
<path d="M6842 3443 c3 -34 5 -37 41 -39 l37 -4 0 40 0 40 -41 0 -40 0 3 -37z"/>
<path d="M6950 3440 c0 -36 3 -40 24 -40 44 0 56 10 56 46 0 33 -1 34 -40 34
l-40 0 0 -40z"/>
<path d="M8050 3400 c6 -11 13 -20 16 -20 2 0 0 9 -6 20 -6 11 -13 20 -16 20
-2 0 0 -9 6 -20z"/>
<path d="M8070 3363 c0 -6 8 -17 18 -24 16 -13 16 -13 2 6 -8 11 -16 22 -17
24 -2 2 -3 0 -3 -6z"/>
<path d="M7790 3330 c6 -11 13 -20 16 -20 2 0 0 9 -6 20 -6 11 -13 20 -16 20
-2 0 0 -9 6 -20z"/>
<path d="M8155 3239 c-4 -6 -5 -12 -2 -15 2 -3 7 2 10 11 7 17 1 20 -8 4z"/>
<path d="M8046 3215 c-3 -9 -6 -22 -5 -28 0 -7 5 -1 10 12 5 13 8 26 5 28 -2
2 -6 -3 -10 -12z"/>
<path d="M7771 3194 c0 -11 3 -14 6 -6 3 7 2 16 -1 19 -3 4 -6 -2 -5 -13z"/>
<path d="M7756 3155 c-9 -26 -7 -32 5 -12 6 10 9 21 6 23 -2 3 -7 -2 -11 -11z"/>
<path d="M8006 3093 c-14 -43 -26 -83 -25 -88 0 -6 14 28 30 74 16 47 27 86
25 88 -2 3 -16 -31 -30 -74z"/>
<path d="M8329 3143 l-24 -28 28 24 c15 14 27 26 27 28 0 8 -8 1 -31 -24z"/>
<path d="M8274 3088 l-19 -23 23 19 c12 11 22 21 22 23 0 8 -8 2 -26 -19z"/>
<path d="M7731 3074 c0 -11 3 -14 6 -6 3 7 2 16 -1 19 -3 4 -6 -2 -5 -13z"/>
<path d="M8078 3016 c-13 -42 -23 -76 -22 -76 6 0 134 83 134 86 0 2 -25 -10
-55 -27 -30 -17 -55 -29 -55 -27 0 1 7 28 15 58 21 81 11 72 -17 -14z"/>
<path d="M7706 3004 c-9 -26 -16 -52 -15 -58 0 -6 9 13 20 43 10 30 17 56 15
58 -2 2 -11 -17 -20 -43z"/>
<path d="M7477 3001 c-60 -36 -74 -50 -22 -23 39 20 85 52 75 51 -3 0 -26 -13
-53 -28z"/>
<path d="M7966 2975 c-3 -9 -6 -22 -5 -28 0 -7 5 -1 10 12 5 13 8 26 5 28 -2
2 -6 -3 -10 -12z"/>
<path d="M7322 2911 c-46 -26 -84 -51 -85 -55 -1 -3 36 -29 83 -57 l85 -51 60
33 c150 82 219 125 223 139 2 10 1 11 -5 4 -9 -13 -72 -51 -196 -120 l-79 -44
-36 20 c-20 10 -56 32 -80 48 l-43 29 80 47 c45 26 81 49 81 51 0 8 0 8 -88
-44z"/>
<path d="M7919 2828 c-38 -114 -21 -97 -189 -190 l-65 -36 -63 37 c-34 21 -59
41 -54 46 4 5 2 6 -3 2 -6 -3 -16 -2 -23 2 -7 4 26 28 83 60 51 29 102 59 112
68 17 13 -22 -7 -169 -89 l-57 -32 86 -53 c85 -51 86 -52 117 -36 55 28 170
96 189 111 16 14 82 200 74 209 -2 2 -20 -42 -38 -99z"/>
</g>
</svg>
